<svg width="1024" xmlns="http://www.w3.org/2000/svg" height="1024" id="screenshot-bdf94a95-301e-8026-8007-ffbd65b19586" viewBox="0 0 1024 1024" xmlns:xlink="http://www.w3.org/1999/xlink" fill="none" version="1.1"><g id="shape-bdf94a95-301e-8026-8007-ffbd65b19586"><defs><clipPath id="frame-clip-bdf94a95-301e-8026-8007-ffbd65b19586-render-1" class="frame-clip frame-clip-def"><rect rx="0" ry="0" x="0" y="0" width="1024" height="1024.0000000000002" transform="matrix(1.000000, 0.000000, 0.000000, 1.000000, 0.000000, 0.000000)"/></clipPath></defs><g class="frame-container-wrapper"><g class="frame-container-blur"><g class="frame-container-shadows"><g clip-path="url(#frame-clip-bdf94a95-301e-8026-8007-ffbd65b19586-render-1)" fill="none"><g class="fills" id="fills-bdf94a95-301e-8026-8007-ffbd65b19586"><rect rx="0" ry="0" x="0" y="0" width="1024" height="1024.0000000000002" transform="matrix(1.000000, 0.000000, 0.000000, 1.000000, 0.000000, 0.000000)" class="frame-background"/></g><g class="frame-children"><g id="shape-bdf94a95-301e-8026-8007-ffbd65b19587"><g class="fills" id="fills-bdf94a95-301e-8026-8007-ffbd65b19587"><rect rx="0" ry="0" x="1.8189894035458565e-12" y="0" transform="matrix(1.000000, 0.000000, 0.000000, 1.000000, 0.000000, 0.000000)" width="1023.9999999999991" height="1024.0000000000002" style="fill: rgb(254, 250, 247); fill-opacity: 1;"/></g></g><g id="shape-bdf94a95-301e-8026-8007-ffbd65b19588"><g class="fills" id="fills-bdf94a95-301e-8026-8007-ffbd65b19588"><rect rx="0" ry="0" x="1.8189894035458565e-12" y="0" transform="matrix(1.000000, 0.000000, 0.000000, 1.000000, 0.000000, 0.000000)" width="1023.9999999999991" height="1024.0000000000002" style="fill: rgb(254, 250, 247); fill-opacity: 1;"/></g></g><g id="shape-bdf94a95-301e-8026-8007-ffbd65b19589"><g class="fills" id="fills-bdf94a95-301e-8026-8007-ffbd65b19589"><rect rx="0" ry="0" x="0.00400543374416884" y="4.491112122195773e-7" transform="matrix(1.000000, 0.000000, 0.000000, 1.000000, 0.000000, 0.000000)" width="1024" height="1024.0000000000002" style="fill: rgb(55, 61, 138); fill-opacity: 1;"/></g></g><g id="shape-bdf94a95-301e-8026-8007-ffbd65b1958a" width="184" height="141" rx="0" ry="0" style="fill: rgb(0, 0, 0);"><defs><clipPath id="render-5-a" class="svg-def" transform="matrix(1.000000, 0.000000, 0.000000, 1.000000, 0.000000, 0.000000)"><rect width="183" height="141" fill="#fff" transform="translate(0.777344)"/></clipPath></defs><g id="shape-bdf94a95-301e-8026-8007-ffbd65b1958c" style="display: none;"><g class="fills" id="fills-bdf94a95-301e-8026-8007-ffbd65b1958c"><rect width="708" height="543" x="158" transform="matrix(1.000000, 0.000000, 0.000000, 1.000000, 0.000000, 0.000000)" style="fill: none;" ry="0" fill="none" rx="0" y="240.50000000000023"/></g></g><g id="shape-bdf94a95-301e-8026-8007-ffbd65b1958d"><defs fill="none" style="fill: rgb(0, 0, 0);"/></g></g><g id="shape-bdf94a95-301e-8026-8007-ffbd65b1958b" rx="0" ry="0" style="fill: rgb(0, 0, 0);"><defs><svg id="render-8-Layer_1" viewBox="0 0 865.3 306.3"><path d="M123,207.2c-.7-.8-1.3-1.8-1.9-2.9-.8-1.7-1.3-5-1.7-9.7l-5.8-86.5c-.2-3.6-1.5-6.6-3.6-8.8-2.2-2.2-5-3.3-8.6-3-3.2.2-6.3.8-9.3,1.9-2.9,1-6.8,2.7-11.5,5l-28.2,13.3c-3.9,1.9-6.7,3.9-8.3,6.1-1.6,2.2-2.3,4.7-2.1,7.7.2,2.6.9,4.6,2.3,6.1,1.3,1.5,3.1,2.9,5.3,4.2l1.9.9c1.7.8,3.1,2,4.1,3.5,1.1,1.5,1.7,4.4,2,8.6l3.1,45.1c.3,4.8.2,8.1-.3,9.9-.5,1.8-1.3,3.3-2.5,4.4l-1.8,1.4c-2.1,1.7-3.7,3.5-4.7,5.6-1.1,2-1.5,4.5-1.3,7.2.2,3.8,1.7,6.7,4.2,8.7,2.5,2,5.8,2.9,9.7,2.6l56.8-3.8c-2.3-7.2-1.7-16.1,2.2-27.2ZM101.8,34.1c-6.2-6-13.2-8.6-20.9-7.7-7.8.9-15.3,5-22.5,12.4-7.2,7.4-11.1,15-11.7,22.8-.6,7.8,2.2,14.6,8.4,20.6,6.2,6.1,13.3,8.7,21,7.9,7.8-.8,15.3-4.9,22.5-12.3,7.2-7.4,11.1-15,11.7-22.9s-2.2-14.8-8.5-20.8Z" style="fill: rgb(49, 94, 92);"/><path d="M428.1,224.6c.1,2.6-.8,5.9-3,9.9-4.6,8.9-11.6,16.1-21.2,21.5-9.5,5.5-20.8,8.2-33.7,8.2s-16.8-1.9-21.3-5.5c-4.6-3.7-6.9-8.9-7.2-15.5-.2-6.6,1.2-14.3,4.2-23l14.1-39.9c2.5-6.3,3.4-11.1,2.9-14.3-.6-3.2-2.8-4.8-6.6-4.8s-5.1.8-7.8,2.5c-2.7,1.7-5.4,4-8.1,7-2.7,3-5.2,6.6-7.7,10.8s-4.7,8.9-6.7,14.1c-1.7,4.6-3.2,8.7-4.5,12.3-1.3,3.6-2.3,6.8-2.9,9.6-.7,2.7-1,5.1-1,7.3,0,3.2.6,6.1,1.7,8.8,1.1,2.7,1.6,5.7,1.6,9.2,0,6.5-4.1,11.7-12.3,15.7-8.2,3.9-19.8,5.9-34.6,5.9s-16.8-3.3-19.1-9.9c-.7-2.1-1.1-4.5-1.2-7.1,8.7-1.3,16.7-3.9,23.7-8,10.3-5.9,18.1-13.8,23.1-23.6,2.6-4.9,3.7-9,3.5-12.5-.3-5.8-3.6-8.4-5.6-9.4-1.7-.9-3.5-1.4-5.4-1.4s-1.6,0-2.4.3c-2.3.5-4.8,1.9-7.7,4.4-1.7,1.3-2.6,1.8-3.1,2.1h0c0-.7-.1-3.4,2.4-10.4l14.1-40.1c3.5-9.8,5-18.7,4.5-26.4,0-.2,0-.3,0-.4,4.2-.7,8.6-1,13.2-1,8,0,14.2,1.6,18.5,4.7,4.3,3.2,6.4,7.7,6.4,13.6s-.8,7.5-2.5,11.8c-.7,1.7-1.4,3.4-2.1,5.2,6.3-8.5,12.9-15.3,19.9-20.5,7.2-5.3,14.4-9.1,21.7-11.4,7.3-2.3,14.2-3.4,20.8-3.4s16.2,2,20.8,6.1c4.6,4.1,7.1,9.7,7.5,16.8.4,7.1-1,15.3-4.2,24.5l-14.1,40.1c-2.3,6.5-3.1,11-2.4,13.6.7,2.5,2,3.8,3.9,3.8s2.1-.3,3.2-.8c1-.5,2.4-1.4,4-2.7,2.3-1.9,4.2-3,5.7-3.4.4,0,.9-.1,1.3-.1,1,0,2,.3,3,.8,1.8,1,2.8,2.7,3,5.3Z" style="fill: rgb(49, 94, 92);"/><path d="M573.2,181.4c-.6-3.2-1.7-5.3-3.3-6.3-1.6-1-3.3-1.4-5-1.2-1.3.2-2.7.8-4,1.8-1.4,1-3.1,2.8-5.3,5.3-3.7,4.4-8.1,8-13.2,10.8-5.1,2.8-10.3,4.7-15.6,5.7-11.8,2.3-22,.4-30.6-5.7-4.1-2.9-7.5-6.9-10.3-12l59-11.4c8.1-1.6,13.9-4.9,17.6-10.1,3.6-5.1,4.7-11.6,3.2-19.3-1.8-9.1-5.9-17.1-12.5-23.9-6.5-6.8-15-11.6-25.3-14.5-10.3-2.9-22-3-35.2-.5-16.4,3.2-29.7,9-39.7,17.4s-16.9,18.6-20.5,30.7c-3.7,12-4.1,25-1.5,38.9,2.6,13.5,7.9,24.8,16,33.9,8.1,9.1,18.1,15.4,30.2,18.9,12.1,3.5,25.6,3.8,40.4.9,13.3-2.6,24.3-7,33.1-13.3,8.8-6.3,15.1-13.5,19-21.8,3.9-8.2,5.1-16.4,3.5-24.6ZM482.9,154.7c-.9-4.4-1-8.1-.5-10.9.5-2.8,1.5-5,2.9-6.5,1.5-1.5,3.1-2.5,5-2.9,2.4-.5,4.8.2,7.1,2,2.3,1.8,4,5.2,4.9,10.2.8,4.2-.8,6.7-4.9,7.5l-14.2,2.7c-.1-.7-.3-1.4-.4-2.1Z" style="fill: rgb(49, 94, 92);"/><path d="M825.7,152.7c-.3,8.5-2.2,15.8-5.7,21.9-3.5,6.1-7.9,10.7-13.3,13.9-5.4,3.2-11.1,4.8-17.2,4.8s-11.8-1.5-14.7-4.4c-2.9-2.9-4.4-6.2-4.4-9.7s.4-5.4,1.3-8c.9-2.5,1.3-5,1.3-7.5s-.5-3.4-1.5-4.5c-1-1-2.3-1.6-3.8-1.6-2.2,0-4.4,1.1-6.8,3.2-2.3,2.2-4.8,6-7.5,11.4-2.7,5.5-5.9,13.2-9.4,23.3-2.4,6.8-4.1,12.3-5,16.5-.9,4.2-1.4,8.1-1.4,11.6s.8,6.1,2.3,7.7c1.5,1.6,3.1,3.2,4.6,4.7,1.5,1.6,2.3,4.1,2.3,7.7s-1.9,7.4-5.8,10.5c-3.9,3.1-9.7,5.5-17.5,7.2-7.8,1.7-17.7,2.6-29.7,2.6s-13.3-1.5-16.9-4.5c-3.6-3-5.4-7.3-5.5-12.8,0-5.5,1.3-12,4.2-19.5l19-50.3c6.4-.3,12.6-2.1,18.2-5.5,6.1-3.6,11.2-8.9,15.1-15.7,3.9-6.7,6-14.9,6.3-24.2.1-3.9-.1-7.6-.8-11,5.8.4,10.3,1.9,13.4,4.7,3.6,3.2,5.4,7.7,5.4,13.6s-.7,7.5-2,11.8c-.2.8-.5,1.6-.8,2.5,4.4-7.5,9.2-13.6,14.2-18.2,5.7-5.2,11.4-8.9,17.2-11.1,5.8-2.2,11.2-3.3,16.2-3.3,9.4,0,16.6,2.9,21.7,8.8,5.1,5.9,7.4,13.6,7,23.2Z" style="fill: rgb(49, 94, 92);"/><path d="M729.2,131.6c-.3,8.5-2.2,15.8-5.7,21.9-3.5,6.1-7.9,10.7-13.3,13.9-4.4,2.6-9,4.2-13.9,4.7-.9,0-1.8.1-2.7.2-.2,0-.4,0-.7,0-.7,0-1.3,0-1.9,0-3.3-.1-6-.6-8.3-1.5-1.3-.5-2.4-1.1-3.4-1.9-.4-.3-.8-.6-1.1-.9-.6-.7-1.2-1.3-1.7-2-1.8-2.4-2.6-5-2.6-7.7s0-2.4.2-3.6c.2-1.5.6-3,1-4.4.6-1.8,1-3.5,1.2-5.3h0c0-.8.1-1.5.1-2.2s0-1.4-.2-2c-.2-1-.7-1.8-1.3-2.4-1-1.1-2.3-1.6-3.8-1.6-2.2,0-4.4,1.1-6.8,3.2-2.3,2.2-4.8,6-7.5,11.4s-5.9,13.2-9.4,23.3c-2.4,6.8-4,12.3-4.9,16.5-.9,4.2-1.4,8.1-1.4,11.6s.8,6.1,2.3,7.7c1.5,1.6,3.1,3.2,4.6,4.7,1.5,1.6,2.3,4.1,2.3,7.7s-1.9,7.4-5.8,10.5c-3.9,3.1-9.7,5.5-17.5,7.2-7.8,1.7-17.7,2.6-29.7,2.6s-13.3-1.5-16.9-4.5c-3.6-3-5.4-7.3-5.5-12.8-.1-5.5,1.3-12,4.2-19.5l19.1-50.7c2.5-6.5,3.3-11,2.6-13.6-.8-2.5-2.1-3.8-4-3.8s-2.1.2-3.2.7c-1.1.5-2.4,1.4-4,2.7-2.3,1.8-4.2,2.9-5.7,3.2-.5.1-1,.2-1.5.2-1,0-1.9-.2-2.9-.7-1.8-1-2.8-2.7-2.9-5.3-.1-2.6.8-5.9,2.9-9.9,3.1-5.9,7.3-11.1,12.6-15.6,5.4-4.5,11.6-7.9,18.7-10.4,7.1-2.5,14.8-3.7,23.1-3.7s12.7,1.6,16.3,4.7c3.6,3.2,5.4,7.7,5.4,13.6s-.7,7.5-2,11.8c-.2.8-.5,1.6-.8,2.4,4.4-7.5,9.2-13.6,14.2-18.2,5.7-5.2,11.4-8.9,17.2-11.1,5.7-2.2,11.1-3.3,16.2-3.3,9.4,0,16.6,2.9,21.7,8.8,1.9,2.2,3.4,4.7,4.5,7.4.3.8.6,1.6.9,2.5.3.8.5,1.6.7,2.5.8,3.3,1.1,6.9.9,10.9Z" style="fill: rgb(49, 94, 92);"/><path d="M296,213.4c-4.6,8.9-11.7,16.1-21.2,21.5-6.2,3.6-13.2,6-20.9,7.2-.8.1-1.7.3-2.5.4-.8.1-1.7.2-2.6.3-2.5.2-5,.3-7.6.3-9.7,0-16.8-1.9-21.3-5.5-4.5-3.7-6.9-8.9-7.2-15.5-.2-6.6,1.2-14.3,4.2-23l14.1-39.9c2.5-6.3,3.4-11.1,2.9-14.3-.6-3.2-2.8-4.8-6.6-4.8s-5.1.8-7.8,2.5c-2.7,1.7-5.4,4-8.1,7-2.7,3-5.2,6.6-7.7,10.8-2.5,4.2-4.7,8.9-6.7,14.1-1.7,4.6-3.2,8.7-4.5,12.3-1.3,3.6-2.3,6.8-2.9,9.6-.7,2.7-1,5.1-1,7.3,0,3.2.6,6.1,1.7,8.8,1.1,2.7,1.7,5.7,1.7,9.2,0,6.5-4.1,11.7-12.4,15.7-8.2,3.9-19.8,5.9-34.6,5.9s-16.6-3.2-19-9.6c0-.1,0-.2-.1-.3-2-5.8-1.5-13.5,1.6-23,.4-1.2.8-2.5,1.3-3.8l19.1-50.7c2.5-6.5,3.4-11,2.6-13.6-.8-2.5-2.1-3.8-4-3.8s-2.1.2-3.2.7c-1,.5-2.4,1.4-4,2.7-2.3,1.8-4.2,2.9-5.7,3.2-.5.1-1,.2-1.5.2-1,0-1.9-.2-2.9-.7-1.8-1-2.8-2.7-2.9-5.3-.2-2.6.8-5.9,2.9-9.9,4.7-8.9,11.9-16.1,21.5-21.6,9.7-5.4,21.1-8.2,34.2-8.2s14.2,1.6,18.4,4.7c4.3,3.2,6.4,7.7,6.4,13.6s-.8,7.5-2.5,11.8c-.7,1.7-1.4,3.4-2.1,5.2,6.3-8.5,12.9-15.3,19.8-20.5,7.2-5.3,14.4-9.1,21.7-11.4,7.3-2.3,14.2-3.5,20.8-3.5s16.2,2,20.8,6.1c3.5,3.1,5.8,7.1,6.9,12.1.2.8.3,1.6.4,2.5.1.7.2,1.5.2,2.3,0,0,0,.1,0,.2.4,7.1-1,15.2-4.2,24.3l-14.1,40.1c-2.3,6.5-3.1,11-2.4,13.6.7,2.5,2,3.8,3.9,3.8s2.1-.3,3.2-.8c1.1-.5,2.4-1.4,4-2.7,2.3-1.9,4.2-3,5.7-3.4.5,0,.9-.1,1.4-.1,1,0,2,.3,3,.8,1.8,1,2.8,2.7,2.9,5.3.2,2.6-.8,5.9-2.9,9.9Z" style="fill: rgb(49, 94, 92);"/><path d="M37.2,19.8c-10.1,2.2-15.5,17.7-13.7,23.3.6,1.2,2.5,1.2,2.7,0,2.2-12,7.3-15.8,12.6-19.3,2-1.3.7-4.4-1.6-3.9Z" style="fill: rgb(49, 94, 92);"/><path d="M30.2,8.7c-16.5-.4-24.8,24.2-22.6,32.9.5,1.7,3.3,1.4,3.6-.3,3.4-18.8,12-23.2,20.2-28.7,1.8-1.2.9-3.9-1.2-3.9Z" style="fill: rgb(49, 94, 92);"/><path d="M399.3,280.7c9.8,5.3,23.5-5.9,25.5-11.9.6-1.1-1.5-2.1-2.3-1.2-8.9,9.6-15.6,9.5-22.3,9.6-1.9,0-2.6,2.6-.9,3.5Z" style="fill: rgb(49, 94, 92);"/><path d="M433.2,278.6c-13.4,14.5-23.2,13-33.3,13.3-1.8,0-2.4,2.3-1,3.4,13.7,10.4,34.7-6.3,37.6-15,.9-1.5-2.1-2.9-3.2-1.7Z" style="fill: rgb(49, 94, 92);"/><path d="M827,104.4c-1.2-.4-1.7,2-.6,2.6,10.6,5.8,12.7,11.8,14.3,17.8.6,2.4,4.1,2,4.3-.4.8-10.1-12.1-19.5-18-20Z" style="fill: rgb(49, 94, 92);"/><path d="M833.2,90.4c-1.7-.5-2.4,2.7-.8,3.5,16.5,9,17.8,18.5,20.5,27.8.6,2.1,3.7,2.1,4.2,0,4-15.4-15.4-30.7-23.9-31.3Z" style="fill: rgb(49, 94, 92);"/></svg></defs><g id="shape-bdf94a95-301e-8026-8007-ffbd65b1958e"><g class="fills" id="fills-bdf94a95-301e-8026-8007-ffbd65b1958e"><path d="M381.3858337402344,681.4035034179688C379.6734313964844,679.4452514648438,378.2076110839844,676.9973754882812,376.7408142089844,674.3046264648438C374.7867126464844,670.1432495117188,373.5660095214844,662.0661010742188,372.5904235839844,650.5623168945312L358.4585876464844,438.84539794921875C357.9703063964844,430.03411865234375,354.7935485839844,422.69061279296875,349.6622009277344,417.30511474609375C344.2842712402344,411.91937255859375,337.4385681152344,409.22552490234375,328.6368103027344,409.95770263671875C320.8140563964844,410.44512939453125,313.2339782714844,411.91229248046875,305.8995056152344,414.60272216796875C298.8096618652344,417.04852294921875,289.2725524902344,421.20770263671875,277.7818298339844,426.83416748046875L208.82919311523438,459.37152099609375C199.29354858398438,464.01971435546875,192.44784545898438,468.91326904296875,188.53427124023438,474.29656982421875C184.62167358398438,479.68084716796875,182.90878295898438,485.79925537109375,183.39559936523438,493.14215087890625C183.88388061523438,499.50579833984375,185.59384155273438,504.40130615234375,189.01571655273438,508.07318115234375C192.19198608398438,511.74554443359375,196.59286499023438,515.1730346679688,201.97177124023438,518.3558959960938L206.61630249023438,520.5599975585938C210.77157592773438,522.5187377929688,214.19345092773438,525.4566040039062,216.63729858398438,529.1283569335938C219.32675170898438,532.8004760742188,220.79110717773438,539.8986206054688,221.52304077148438,550.1785278320312L229.07723999023438,660.5650024414062C229.80819702148438,672.3134155273438,229.56112670898438,680.3903198242188,228.33749389648438,684.7955932617188C227.11434936523438,689.2008666992188,225.15682983398438,692.8721313476562,222.22274780273438,695.5636596679688L217.82138061523438,698.9894409179688C212.68710327148438,703.1491088867188,208.77450561523438,707.5536499023438,206.32772827148438,712.6928100585938C203.63729858398438,717.5875854492188,202.65878295898438,723.7062377929688,203.14608764648438,730.3143920898438C203.63241577148438,739.6154174804688,207.29794311523438,746.7145385742188,213.40927124023438,751.6107788085938C219.52059936523438,756.5072631835938,227.58798217773438,758.7118530273438,237.12265014648438,757.9799194335938L375.9908142089844,748.7098999023438C370.3721618652344,731.0863647460938,371.8433532714844,709.3036499023438,381.3858337402344,682.1377563476562L381.3858337402344,681.4035034179688M329.6495056152344,257.71966552734375C314.4947204589844,243.03094482421875,297.3819274902344,236.66375732421875,278.5572204589844,238.86224365234375C259.4864196777344,241.06048583984375,241.14755249023438,251.09149169921875,223.54159545898438,269.19964599609375C205.93515014648438,287.30755615234375,196.39559936523438,305.90692138671875,194.92440795898438,324.99737548828125C193.45272827148438,344.08807373046875,200.29452514648438,360.73284912109375,215.44931030273438,375.42156982421875C230.60409545898438,390.35540771484375,247.96102905273438,396.72259521484375,266.7867126464844,394.76873779296875C285.8565368652344,392.81524658203125,304.1949157714844,382.78387451171875,321.8023376464844,364.67645263671875C339.4087829589844,346.56842041015625,348.9483337402344,327.96942138671875,350.4185485839844,308.63372802734375C351.8897399902344,289.29827880859375,345.0484313964844,272.40863037109375,329.6495056152344,257.71966552734375L329.6495056152344,257.71966552734375" style="fill: rgb(248, 243, 239); fill-opacity: 1;"/></g></g><g id="shape-bdf94a95-301e-8026-8007-ffbd65b1958f"><g class="fills" id="fills-bdf94a95-301e-8026-8007-ffbd65b1958f"><path d="M804.3374633789062,696.6735229492188C793.0855102539062,718.4540405273438,775.7227172851562,736.0726928710938,752.4937133789062,749.2841186523438C737.3350219726562,758.0919799804688,720.2197875976562,763.9623413085938,701.3941040039062,766.8949584960938C699.4375610351562,767.1393432617188,697.2373657226562,767.6286010742188,695.2822875976562,767.8724975585938C693.3252563476562,768.1168823242188,691.1250610351562,768.3612670898438,688.9253540039062,768.6058959960938C682.8130493164062,769.0936889648438,676.7012329101562,769.3370971679688,670.3442993164062,769.3358764648438C646.6289672851562,769.3302612304688,629.2720336914062,764.6759643554688,618.2720336914062,755.8622436523438C607.2725219726562,746.8041381835938,601.4072875976562,734.0753784179688,600.6773071289062,717.9213256835938C600.1929321289062,701.7672729492188,603.6196899414062,682.9220581054688,610.9580688476562,661.6298217773438L645.4531860351562,563.9799194335938C651.5689086914062,548.5619506835938,653.7710571289062,536.8141479492188,652.5508422851562,528.9816284179688C651.0859985351562,521.1491088867188,645.7070922851562,517.2318725585938,636.4175415039062,517.2296752929688C627.1270141601562,517.2276000976562,623.9487915039062,519.1847534179688,617.3467407226562,523.3441772460938C610.7446899414062,527.5036010742188,604.1416625976562,533.1317749023438,597.5386352539062,540.4725952148438C590.9365844726562,547.8139038085938,584.8237915039062,556.6237182617188,578.7090454101562,566.9022827148438C572.5942993164062,577.1806030273438,567.2129516601562,588.6828002929688,562.3203735351562,601.4088745117188C558.1626586914062,612.6669311523438,554.4917602539062,622.7009887695312,551.3125610351562,631.5116577148438C548.1314086914062,640.3219604492188,545.6851196289062,648.1535034179688,544.2163696289062,655.0062866210938C542.5029907226562,661.6141967773438,541.7691040039062,667.4884643554688,541.7671508789062,672.8728637695312C541.7661743164062,680.7053833007812,543.2305297851562,687.8038940429688,545.9199829101562,694.4126586914062C548.6069946289062,701.0214233398438,550.0728149414062,708.3644409179688,550.0703735351562,716.9308471679688C550.0669555664062,732.8400268554688,540.0396118164062,745.5653686523438,519.7451782226562,755.3507690429688C499.6954040527344,764.8920288085938,471.3350524902344,769.7807006835938,435.1514587402344,769.7723999023438C398.9683532714844,769.7645874023438,394.5694274902344,761.9310913085938,388.7051696777344,746.2653198242188C388.7061462402344,746.0204467773438,388.7061462402344,745.7760620117188,388.4605407714844,745.5309448242188C383.5733337402344,731.3339233398438,384.8008728027344,712.4882202148438,392.3853454589844,689.2382202148438C393.3643493652344,686.3010864257812,394.3418884277344,683.1198120117188,395.5655212402344,679.9381713867188L442.2901306152344,555.8576049804688C448.4058532714844,539.9498901367188,450.6080017089844,528.9359741210938,448.6534118652344,522.5722045898438C446.6983337402344,516.4528198242188,443.5210876464844,513.2702026367188,438.8765563964844,513.2692260742188C434.2315368652344,513.2682495117188,433.7422790527344,513.7575073242188,431.0523376464844,514.9806518554688C428.6075134277344,516.2037963867188,425.1836853027344,518.4059448242188,421.2720642089844,521.5870971679688C415.6475524902344,525.9911499023438,411.0005798339844,528.6826782226562,407.3345642089844,529.4161987304688C406.1119079589844,529.6603393554688,404.8892517089844,529.9052124023438,403.6670837402344,529.9049682617188C401.2222595214844,529.9042358398438,399.0215759277344,529.4142456054688,396.5777282714844,528.1896362304688C392.1768493652344,525.7411499023438,389.7339782714844,521.5800170898438,389.4903259277344,515.2160034179688C389.0020446777344,508.85247802734375,391.4493103027344,500.77606201171875,396.5855407714844,490.98699951171875C408.0806579589844,469.20623779296875,425.6880798339844,451.58807373046875,449.1617126464844,438.13177490234375C472.8794860839844,424.92010498046875,500.7520446777344,418.07318115234375,532.7798461914062,418.08050537109375C564.8067016601562,418.08734130859375,567.4942016601562,422.00433349609375,577.7612915039062,429.59393310546875C588.2715454101562,437.42840576171875,593.4038696289062,448.44378662109375,593.4004516601562,462.88421630859375C593.3980102539062,477.32489013671875,591.4409790039062,481.24066162109375,587.2822875976562,491.76385498046875C585.5693969726562,495.92437744140625,583.8579711914062,500.08514404296875,582.1445922851562,504.49017333984375C597.5523071289062,483.68939208984375,613.6919555664062,467.04949951171875,630.5635375976562,454.32635498046875C648.1699829101562,441.35809326171875,665.7749633789062,432.06170654296875,683.6226196289062,426.43597412109375C701.4717407226562,420.81048583984375,718.3413696289062,417.87713623046875,734.4776000976562,417.88079833984375C750.6138305664062,417.88446044921875,774.0830688476562,422.78485107421875,785.3257446289062,432.82220458984375C793.8818969726562,440.41180419921875,799.5025024414062,450.20330810546875,802.1885375976562,462.44158935546875C802.6777954101562,464.39984130859375,802.9219360351562,466.35784912109375,803.1655883789062,468.56048583984375C803.4092407226562,470.27435302734375,803.6538696289062,472.23187255859375,803.6538696289062,474.19012451171875C803.6538696289062,474.19012451171875,803.6538696289062,474.43499755859375,803.6538696289062,474.67974853515625C804.6275024414062,492.05755615234375,801.2002563476562,511.88201904296875,793.3716430664062,534.1530151367188L758.8775024414062,632.2922973632812C753.2495727539062,648.2001342773438,751.2920532226562,659.2135620117188,753.0034790039062,665.5778198242188C754.7114868164062,671.6968383789062,757.8906860351562,674.8795776367188,762.5352172851562,674.8806762695312C767.1797485351562,674.8817749023438,767.6699829101562,674.1473999023438,770.3594360351562,672.9242553710938C773.0479125976562,671.7008666992188,776.2271118164062,669.4992065429688,780.1392211914062,666.3182983398438C785.7642211914062,661.6690063476562,790.4102172851562,658.9777221679688,794.0772094726562,657.9996948242188C795.2988891601562,657.9996948242188,796.2778930664062,657.7554321289062,797.5000610351562,657.7555541992188C799.9453735351562,657.7560424804688,802.3892211914062,658.4911499023438,804.8340454101562,659.7155151367188C809.2349243164062,662.1638793945312,811.6777954101562,666.3252563476562,811.9209594726562,672.6890258789062C812.4087524414062,679.0526733398438,809.9624633789062,687.1290893554688,804.8262329101562,696.9181518554688Z" style="fill: rgb(248, 243, 239); fill-opacity: 1;"/></g></g><g id="shape-bdf94a95-301e-8026-8007-ffbd65b19590"><g class="fills" id="fills-bdf94a95-301e-8026-8007-ffbd65b19590"><path d="M154.61337280273438,195.51214599609375C114.27400970458984,194.52435302734375,93.96834564208984,254.72991943359375,99.34188079833984,276.02471923828125C100.56356048583984,280.18585205078125,107.40926361083984,279.45306396484375,108.14363861083984,275.29266357421875C116.46639251708984,229.28021240234375,137.49520874023438,218.51556396484375,157.54550170898438,205.05877685546875C161.94735717773438,202.12274169921875,159.74765014648438,195.51348876953125,154.61337280273438,195.51214599609375Z" style="fill: rgb(245, 235, 105); fill-opacity: 1;"/></g></g><g id="shape-bdf94a95-301e-8026-8007-ffbd65b19591"><g class="fills" id="fills-bdf94a95-301e-8026-8007-ffbd65b19591"><path d="M822.0396118164062,781.6928100585938C848.7339477539062,787.1178588867188,872.8042602539062,751.1290893554688,873.2095336914062,735.6547241210938C873.8286743164062,732.6513061523438,868.2056274414062,731.8068237304688,866.9761352539062,734.4843139648438C852.9937133789062,763.3056030273438,837.2525024414062,767.8466186523438,821.6538696289062,772.8558959960938C817.2090454101562,774.2103881835938,817.4234008789062,780.7973022460938,822.0396118164062,781.6928100585938L822.0396118164062,781.6928100585938" style="fill: rgb(245, 235, 105); fill-opacity: 1;"/></g></g><g id="shape-bdf94a95-301e-8026-8007-ffbd65b19592"><g class="fills" id="fills-bdf94a95-301e-8026-8007-ffbd65b19592"><path d="M903.1411743164062,756.6632690429688C882.1240844726562,800.1649780273438,858.1348266601562,803.6376342773438,834.7261352539062,811.5385131835938C830.5156860351562,812.8217163085938,830.7505493164062,818.6342163085938,834.8076782226562,820.2123413085938C874.2539672851562,834.7992553710938,911.4815063476562,780.7294311523438,912.0708618164062,758.2914428710938C913.1074829101562,754.1378784179688,905.0938110351562,752.9979858398438,903.3755493164062,756.5919799804688Z" style="fill: rgb(245, 235, 105); fill-opacity: 1;"/></g></g><g id="shape-bdf94a95-301e-8026-8007-ffbd65b19593"><g class="fills" id="fills-bdf94a95-301e-8026-8007-ffbd65b19593"><path d="M171.72128295898438,222.68414306640625C147.02743530273438,228.06341552734375,133.81747436523438,265.99749755859375,138.21444702148438,279.70477294921875C139.68075561523438,282.64227294921875,144.32577514648438,282.64337158203125,144.81600952148438,279.70623779296875C150.20126342773438,250.33660888671875,162.67098999023438,241.03875732421875,175.63095092773438,232.47515869140625C180.52157592773438,229.29461669921875,177.34481811523438,221.70660400390625,171.72128295898438,222.92913818359375Z" style="fill: rgb(245, 235, 105); fill-opacity: 1;"/></g></g></g></g></g></g></g></g></g></svg>