<svg width="631" xmlns="http://www.w3.org/2000/svg" height="223" id="screenshot-62bfb287-765e-8072-8007-fa92d6a475f8" viewBox="0 0 631 223" xmlns:xlink="http://www.w3.org/1999/xlink" fill="none" version="1.1"><g id="shape-62bfb287-765e-8072-8007-fa92d6a475f8"><defs><clipPath id="frame-clip-62bfb287-765e-8072-8007-fa92d6a475f8-render-43" class="frame-clip frame-clip-def"><rect rx="0" ry="0" x="0" y="0" width="630.9999999999999" height="223" transform="matrix(1.000000, 0.000000, 0.000000, 1.000000, 0.000000, 0.000000)"/></clipPath></defs><g class="frame-container-wrapper"><g class="frame-container-blur"><g class="frame-container-shadows"><g clip-path="url(#frame-clip-62bfb287-765e-8072-8007-fa92d6a475f8-render-43)" fill="none"><g class="fills" id="fills-62bfb287-765e-8072-8007-fa92d6a475f8"><rect rx="0" ry="0" x="0" y="0" width="630.9999999999999" height="223" transform="matrix(1.000000, 0.000000, 0.000000, 1.000000, 0.000000, 0.000000)" class="frame-background"/></g><g class="frame-children"><g id="shape-62bfb287-765e-8072-8007-fa92d6a475f9" rx="0" ry="0" style="fill: rgb(0, 0, 0);"><defs><svg id="render-44-Layer_1" viewBox="0 0 865.3 306.3"><path d="M123,207.2c-.7-.8-1.3-1.8-1.9-2.9-.8-1.7-1.3-5-1.7-9.7l-5.8-86.5c-.2-3.6-1.5-6.6-3.6-8.8-2.2-2.2-5-3.3-8.6-3-3.2.2-6.3.8-9.3,1.9-2.9,1-6.8,2.7-11.5,5l-28.2,13.3c-3.9,1.9-6.7,3.9-8.3,6.1-1.6,2.2-2.3,4.7-2.1,7.7.2,2.6.9,4.6,2.3,6.1,1.3,1.5,3.1,2.9,5.3,4.2l1.9.9c1.7.8,3.1,2,4.1,3.5,1.1,1.5,1.7,4.4,2,8.6l3.1,45.1c.3,4.8.2,8.1-.3,9.9-.5,1.8-1.3,3.3-2.5,4.4l-1.8,1.4c-2.1,1.7-3.7,3.5-4.7,5.6-1.1,2-1.5,4.5-1.3,7.2.2,3.8,1.7,6.7,4.2,8.7,2.5,2,5.8,2.9,9.7,2.6l56.8-3.8c-2.3-7.2-1.7-16.1,2.2-27.2ZM101.8,34.1c-6.2-6-13.2-8.6-20.9-7.7-7.8.9-15.3,5-22.5,12.4-7.2,7.4-11.1,15-11.7,22.8-.6,7.8,2.2,14.6,8.4,20.6,6.2,6.1,13.3,8.7,21,7.9,7.8-.8,15.3-4.9,22.5-12.3,7.2-7.4,11.1-15,11.7-22.9s-2.2-14.8-8.5-20.8Z" style="fill: rgb(49, 94, 92);"/><path d="M428.1,224.6c.1,2.6-.8,5.9-3,9.9-4.6,8.9-11.6,16.1-21.2,21.5-9.5,5.5-20.8,8.2-33.7,8.2s-16.8-1.9-21.3-5.5c-4.6-3.7-6.9-8.9-7.2-15.5-.2-6.6,1.2-14.3,4.2-23l14.1-39.9c2.5-6.3,3.4-11.1,2.9-14.3-.6-3.2-2.8-4.8-6.6-4.8s-5.1.8-7.8,2.5c-2.7,1.7-5.4,4-8.1,7-2.7,3-5.2,6.6-7.7,10.8s-4.7,8.9-6.7,14.1c-1.7,4.6-3.2,8.7-4.5,12.3-1.3,3.6-2.3,6.8-2.9,9.6-.7,2.7-1,5.1-1,7.3,0,3.2.6,6.1,1.7,8.8,1.1,2.7,1.6,5.7,1.6,9.2,0,6.5-4.1,11.7-12.3,15.7-8.2,3.9-19.8,5.9-34.6,5.9s-16.8-3.3-19.1-9.9c-.7-2.1-1.1-4.5-1.2-7.1,8.7-1.3,16.7-3.9,23.7-8,10.3-5.9,18.1-13.8,23.1-23.6,2.6-4.9,3.7-9,3.5-12.5-.3-5.8-3.6-8.4-5.6-9.4-1.7-.9-3.5-1.4-5.4-1.4s-1.6,0-2.4.3c-2.3.5-4.8,1.9-7.7,4.4-1.7,1.3-2.6,1.8-3.1,2.1h0c0-.7-.1-3.4,2.4-10.4l14.1-40.1c3.5-9.8,5-18.7,4.5-26.4,0-.2,0-.3,0-.4,4.2-.7,8.6-1,13.2-1,8,0,14.2,1.6,18.5,4.7,4.3,3.2,6.4,7.7,6.4,13.6s-.8,7.5-2.5,11.8c-.7,1.7-1.4,3.4-2.1,5.2,6.3-8.5,12.9-15.3,19.9-20.5,7.2-5.3,14.4-9.1,21.7-11.4,7.3-2.3,14.2-3.4,20.8-3.4s16.2,2,20.8,6.1c4.6,4.1,7.1,9.7,7.5,16.8.4,7.1-1,15.3-4.2,24.5l-14.1,40.1c-2.3,6.5-3.1,11-2.4,13.6.7,2.5,2,3.8,3.9,3.8s2.1-.3,3.2-.8c1-.5,2.4-1.4,4-2.7,2.3-1.9,4.2-3,5.7-3.4.4,0,.9-.1,1.3-.1,1,0,2,.3,3,.8,1.8,1,2.8,2.7,3,5.3Z" style="fill: rgb(49, 94, 92);"/><path d="M573.2,181.4c-.6-3.2-1.7-5.3-3.3-6.3-1.6-1-3.3-1.4-5-1.2-1.3.2-2.7.8-4,1.8-1.4,1-3.1,2.8-5.3,5.3-3.7,4.4-8.1,8-13.2,10.8-5.1,2.8-10.3,4.7-15.6,5.7-11.8,2.3-22,.4-30.6-5.7-4.1-2.9-7.5-6.9-10.3-12l59-11.4c8.1-1.6,13.9-4.9,17.6-10.1,3.6-5.1,4.7-11.6,3.2-19.3-1.8-9.1-5.9-17.1-12.5-23.9-6.5-6.8-15-11.6-25.3-14.5-10.3-2.9-22-3-35.2-.5-16.4,3.2-29.7,9-39.7,17.4s-16.9,18.6-20.5,30.7c-3.7,12-4.1,25-1.5,38.9,2.6,13.5,7.9,24.8,16,33.9,8.1,9.1,18.1,15.4,30.2,18.9,12.1,3.5,25.6,3.8,40.4.9,13.3-2.6,24.3-7,33.1-13.3,8.8-6.3,15.1-13.5,19-21.8,3.9-8.2,5.1-16.4,3.5-24.6ZM482.9,154.7c-.9-4.4-1-8.1-.5-10.9.5-2.8,1.5-5,2.9-6.5,1.5-1.5,3.1-2.5,5-2.9,2.4-.5,4.8.2,7.1,2,2.3,1.8,4,5.2,4.9,10.2.8,4.2-.8,6.7-4.9,7.5l-14.2,2.7c-.1-.7-.3-1.4-.4-2.1Z" style="fill: rgb(49, 94, 92);"/><path d="M825.7,152.7c-.3,8.5-2.2,15.8-5.7,21.9-3.5,6.1-7.9,10.7-13.3,13.9-5.4,3.2-11.1,4.8-17.2,4.8s-11.8-1.5-14.7-4.4c-2.9-2.9-4.4-6.2-4.4-9.7s.4-5.4,1.3-8c.9-2.5,1.3-5,1.3-7.5s-.5-3.4-1.5-4.5c-1-1-2.3-1.6-3.8-1.6-2.2,0-4.4,1.1-6.8,3.2-2.3,2.2-4.8,6-7.5,11.4-2.7,5.5-5.9,13.2-9.4,23.3-2.4,6.8-4.1,12.3-5,16.5-.9,4.2-1.4,8.1-1.4,11.6s.8,6.1,2.3,7.7c1.5,1.6,3.1,3.2,4.6,4.7,1.5,1.6,2.3,4.1,2.3,7.7s-1.9,7.4-5.8,10.5c-3.9,3.1-9.7,5.5-17.5,7.2-7.8,1.7-17.7,2.6-29.7,2.6s-13.3-1.5-16.9-4.5c-3.6-3-5.4-7.3-5.5-12.8,0-5.5,1.3-12,4.2-19.5l19-50.3c6.4-.3,12.6-2.1,18.2-5.5,6.1-3.6,11.2-8.9,15.1-15.7,3.9-6.7,6-14.9,6.3-24.2.1-3.9-.1-7.6-.8-11,5.8.4,10.3,1.9,13.4,4.7,3.6,3.2,5.4,7.7,5.4,13.6s-.7,7.5-2,11.8c-.2.8-.5,1.6-.8,2.5,4.4-7.5,9.2-13.6,14.2-18.2,5.7-5.2,11.4-8.9,17.2-11.1,5.8-2.2,11.2-3.3,16.2-3.3,9.4,0,16.6,2.9,21.7,8.8,5.1,5.9,7.4,13.6,7,23.2Z" style="fill: rgb(49, 94, 92);"/><path d="M729.2,131.6c-.3,8.5-2.2,15.8-5.7,21.9-3.5,6.1-7.9,10.7-13.3,13.9-4.4,2.6-9,4.2-13.9,4.7-.9,0-1.8.1-2.7.2-.2,0-.4,0-.7,0-.7,0-1.3,0-1.9,0-3.3-.1-6-.6-8.3-1.5-1.3-.5-2.4-1.1-3.4-1.9-.4-.3-.8-.6-1.1-.9-.6-.7-1.2-1.3-1.7-2-1.8-2.4-2.6-5-2.6-7.7s0-2.4.2-3.6c.2-1.5.6-3,1-4.4.6-1.8,1-3.5,1.2-5.3h0c0-.8.1-1.5.1-2.2s0-1.4-.2-2c-.2-1-.7-1.8-1.3-2.4-1-1.1-2.3-1.6-3.8-1.6-2.2,0-4.4,1.1-6.8,3.2-2.3,2.2-4.8,6-7.5,11.4s-5.9,13.2-9.4,23.3c-2.4,6.8-4,12.3-4.9,16.5-.9,4.2-1.4,8.1-1.4,11.6s.8,6.1,2.3,7.7c1.5,1.6,3.1,3.2,4.6,4.7,1.5,1.6,2.3,4.1,2.3,7.7s-1.9,7.4-5.8,10.5c-3.9,3.1-9.7,5.5-17.5,7.2-7.8,1.7-17.7,2.6-29.7,2.6s-13.3-1.5-16.9-4.5c-3.6-3-5.4-7.3-5.5-12.8-.1-5.5,1.3-12,4.2-19.5l19.1-50.7c2.5-6.5,3.3-11,2.6-13.6-.8-2.5-2.1-3.8-4-3.8s-2.1.2-3.2.7c-1.1.5-2.4,1.4-4,2.7-2.3,1.8-4.2,2.9-5.7,3.2-.5.1-1,.2-1.5.2-1,0-1.9-.2-2.9-.7-1.8-1-2.8-2.7-2.9-5.3-.1-2.6.8-5.9,2.9-9.9,3.1-5.9,7.3-11.1,12.6-15.6,5.4-4.5,11.6-7.9,18.7-10.4,7.1-2.5,14.8-3.7,23.1-3.7s12.7,1.6,16.3,4.7c3.6,3.2,5.4,7.7,5.4,13.6s-.7,7.5-2,11.8c-.2.8-.5,1.6-.8,2.4,4.4-7.5,9.2-13.6,14.2-18.2,5.7-5.2,11.4-8.9,17.2-11.1,5.7-2.2,11.1-3.3,16.2-3.3,9.4,0,16.6,2.9,21.7,8.8,1.9,2.2,3.4,4.7,4.5,7.4.3.8.6,1.6.9,2.5.3.8.5,1.6.7,2.5.8,3.3,1.1,6.9.9,10.9Z" style="fill: rgb(49, 94, 92);"/><path d="M296,213.4c-4.6,8.9-11.7,16.1-21.2,21.5-6.2,3.6-13.2,6-20.9,7.2-.8.1-1.7.3-2.5.4-.8.1-1.7.2-2.6.3-2.5.2-5,.3-7.6.3-9.7,0-16.8-1.9-21.3-5.5-4.5-3.7-6.9-8.9-7.2-15.5-.2-6.6,1.2-14.3,4.2-23l14.1-39.9c2.5-6.3,3.4-11.1,2.9-14.3-.6-3.2-2.8-4.8-6.6-4.8s-5.1.8-7.8,2.5c-2.7,1.7-5.4,4-8.1,7-2.7,3-5.2,6.6-7.7,10.8-2.5,4.2-4.7,8.9-6.7,14.1-1.7,4.6-3.2,8.7-4.5,12.3-1.3,3.6-2.3,6.8-2.9,9.6-.7,2.7-1,5.1-1,7.3,0,3.2.6,6.1,1.7,8.8,1.1,2.7,1.7,5.7,1.7,9.2,0,6.5-4.1,11.7-12.4,15.7-8.2,3.9-19.8,5.9-34.6,5.9s-16.6-3.2-19-9.6c0-.1,0-.2-.1-.3-2-5.8-1.5-13.5,1.6-23,.4-1.2.8-2.5,1.3-3.8l19.1-50.7c2.5-6.5,3.4-11,2.6-13.6-.8-2.5-2.1-3.8-4-3.8s-2.1.2-3.2.7c-1,.5-2.4,1.4-4,2.7-2.3,1.8-4.2,2.9-5.7,3.2-.5.1-1,.2-1.5.2-1,0-1.9-.2-2.9-.7-1.8-1-2.8-2.7-2.9-5.3-.2-2.6.8-5.9,2.9-9.9,4.7-8.9,11.9-16.1,21.5-21.6,9.7-5.4,21.1-8.2,34.2-8.2s14.2,1.6,18.4,4.7c4.3,3.2,6.4,7.7,6.4,13.6s-.8,7.5-2.5,11.8c-.7,1.7-1.4,3.4-2.1,5.2,6.3-8.5,12.9-15.3,19.8-20.5,7.2-5.3,14.4-9.1,21.7-11.4,7.3-2.3,14.2-3.5,20.8-3.5s16.2,2,20.8,6.1c3.5,3.1,5.8,7.1,6.9,12.1.2.8.3,1.6.4,2.5.1.7.2,1.5.2,2.3,0,0,0,.1,0,.2.4,7.1-1,15.2-4.2,24.3l-14.1,40.1c-2.3,6.5-3.1,11-2.4,13.6.7,2.5,2,3.8,3.9,3.8s2.1-.3,3.2-.8c1.1-.5,2.4-1.4,4-2.7,2.3-1.9,4.2-3,5.7-3.4.5,0,.9-.1,1.4-.1,1,0,2,.3,3,.8,1.8,1,2.8,2.7,2.9,5.3.2,2.6-.8,5.9-2.9,9.9Z" style="fill: rgb(49, 94, 92);"/><path d="M37.2,19.8c-10.1,2.2-15.5,17.7-13.7,23.3.6,1.2,2.5,1.2,2.7,0,2.2-12,7.3-15.8,12.6-19.3,2-1.3.7-4.4-1.6-3.9Z" style="fill: rgb(49, 94, 92);"/><path d="M30.2,8.7c-16.5-.4-24.8,24.2-22.6,32.9.5,1.7,3.3,1.4,3.6-.3,3.4-18.8,12-23.2,20.2-28.7,1.8-1.2.9-3.9-1.2-3.9Z" style="fill: rgb(49, 94, 92);"/><path d="M399.3,280.7c9.8,5.3,23.5-5.9,25.5-11.9.6-1.1-1.5-2.1-2.3-1.2-8.9,9.6-15.6,9.5-22.3,9.6-1.9,0-2.6,2.6-.9,3.5Z" style="fill: rgb(49, 94, 92);"/><path d="M433.2,278.6c-13.4,14.5-23.2,13-33.3,13.3-1.8,0-2.4,2.3-1,3.4,13.7,10.4,34.7-6.3,37.6-15,.9-1.5-2.1-2.9-3.2-1.7Z" style="fill: rgb(49, 94, 92);"/><path d="M827,104.4c-1.2-.4-1.7,2-.6,2.6,10.6,5.8,12.7,11.8,14.3,17.8.6,2.4,4.1,2,4.3-.4.8-10.1-12.1-19.5-18-20Z" style="fill: rgb(49, 94, 92);"/><path d="M833.2,90.4c-1.7-.5-2.4,2.7-.8,3.5,16.5,9,17.8,18.5,20.5,27.8.6,2.1,3.7,2.1,4.2,0,4-15.4-15.4-30.7-23.9-31.3Z" style="fill: rgb(49, 94, 92);"/></svg></defs><g id="shape-62bfb287-765e-8072-8007-fa92d6a475fc"><g class="fills" id="fills-62bfb287-765e-8072-8007-fa92d6a475fc"><path d="M89.69482421875,150.85107421875C89.184326171875,150.2685546875,88.746826171875,149.54052734375,88.309326171875,148.73974609375C87.72607421875,147.501953125,87.361328125,145.09912109375,87.06982421875,141.677734375L82.840087890625,78.70166015625C82.6943359375,76.08056640625,81.746337890625,73.896484375,80.21484375,72.294921875C78.610595703125,70.693359375,76.56884765625,69.892578125,73.943603515625,70.11083984375C71.610107421875,70.25634765625,69.349365234375,70.693359375,67.161865234375,71.494140625C65.046875,72.22216796875,62.202880859375,73.4599609375,58.775634765625,75.13427734375L38.21142578125,84.8173828125C35.367431640625,86.20068359375,33.32568359375,87.65673828125,32.158935546875,89.25830078125C30.9921875,90.8603515625,30.481689453125,92.68017578125,30.62744140625,94.8642578125C30.7734375,96.75732421875,31.283935546875,98.21337890625,32.3046875,99.3056640625C33.252685546875,100.3974609375,34.5654296875,101.41650390625,36.169677734375,102.36328125L37.55517578125,103.0185546875C38.794921875,103.6005859375,39.815673828125,104.474609375,40.544921875,105.56640625C41.34716796875,106.65869140625,41.78466796875,108.77001953125,42.00341796875,111.82763671875L44.263916015625,144.66259765625C44.48291015625,148.1572265625,44.409912109375,150.5595703125,44.045166015625,151.8701171875C43.6806640625,153.1806640625,43.09716796875,154.27294921875,42.22216796875,155.07373046875L40.90966796875,156.0927734375C39.378173828125,157.33056640625,38.21142578125,158.64111328125,37.482177734375,160.169921875C36.68017578125,161.6259765625,36.388427734375,163.4462890625,36.5341796875,165.41162109375C36.68017578125,168.17822265625,37.77392578125,170.28955078125,39.596923828125,171.74609375C41.419921875,173.2021484375,43.826416015625,173.85693359375,46.67041015625,173.638671875L88.090576171875,170.8720703125C86.413330078125,165.63037109375,86.850830078125,159.15087890625,89.69482421875,151.0693359375ZM74.235107421875,24.82666015625C69.714111328125,20.4580078125,64.609375,18.5654296875,58.994384765625,19.220703125C53.306396484375,19.87548828125,47.837158203125,22.86083984375,42.5869140625,28.24853515625C37.33642578125,33.63623046875,34.492431640625,39.1689453125,34.054931640625,44.84765625C33.617431640625,50.5263671875,35.6591796875,55.47705078125,40.180419921875,59.845703125C44.701416015625,64.28662109375,49.879150390625,66.1796875,55.494140625,65.59716796875C61.18212890625,65.01416015625,66.6513671875,62.029296875,71.901611328125,56.64208984375C77.152099609375,51.25439453125,79.99609375,45.72119140625,80.43359375,39.9697265625C80.871337890625,34.21826171875,78.829345703125,29.19482421875,74.235107421875,24.82666015625Z" style="fill: rgb(55, 61, 138); fill-opacity: 1;"/></g></g><g id="shape-62bfb287-765e-8072-8007-fa92d6a475fd"><g class="fills" id="fills-62bfb287-765e-8072-8007-fa92d6a475fd"><path d="M312.181884765625,163.51904296875C312.2548828125,165.41162109375,311.5986328125,167.814453125,309.994140625,170.7265625C306.639892578125,177.2060546875,301.535400390625,182.4482421875,294.53466796875,186.37939453125C287.60693359375,190.3837890625,279.36669921875,192.34912109375,269.959716796875,192.34912109375C260.552734375,192.34912109375,257.708740234375,190.96630859375,254.42724609375,188.34521484375C251.07275390625,185.6513671875,249.395751953125,181.86572265625,249.1767578125,177.060546875C249.031005859375,172.25537109375,250.0517578125,166.6494140625,252.239501953125,160.3154296875L262.521728515625,131.2666015625C264.3447265625,126.6796875,265.0009765625,123.185546875,264.636474609375,120.85546875C264.19873046875,118.52587890625,262.594482421875,117.36083984375,259.823486328125,117.36083984375C257.052490234375,117.36083984375,256.1044921875,117.943359375,254.135498046875,119.18115234375C252.16650390625,120.4189453125,250.19775390625,122.09326171875,248.228759765625,124.27734375C246.260009765625,126.46142578125,244.436767578125,129.08251953125,242.61376953125,132.14013671875C240.790771484375,135.1982421875,239.1865234375,138.6201171875,237.72802734375,142.40576171875C236.48828125,145.75439453125,235.394287109375,148.73974609375,234.446533203125,151.3603515625C233.49853515625,153.9814453125,232.769287109375,156.31103515625,232.33154296875,158.35009765625C231.8212890625,160.3154296875,231.602294921875,162.06298828125,231.602294921875,163.66455078125C231.602294921875,165.994140625,232.0400390625,168.10546875,232.842041015625,170.0712890625C233.644287109375,172.037109375,234.0087890625,174.22119140625,234.0087890625,176.76953125C234.0087890625,181.50146484375,231.01904296875,185.28759765625,225.039306640625,188.19970703125C219.059814453125,191.0390625,210.6005859375,192.4951171875,199.80810546875,192.4951171875C189.015625,192.4951171875,187.55712890625,190.0927734375,185.8798828125,185.28759765625C185.369384765625,183.7587890625,185.077880859375,182.01123046875,185.0048828125,180.11865234375C191.34912109375,179.171875,197.182861328125,177.27880859375,202.28759765625,174.2939453125C209.798583984375,169.99853515625,215.486572265625,164.2470703125,219.1328125,157.1123046875C221.028564453125,153.54443359375,221.830810546875,150.5595703125,221.68505859375,148.01171875C221.466064453125,143.7890625,219.059814453125,141.89599609375,217.601318359375,141.16796875C216.361572265625,140.5126953125,215.049072265625,140.14892578125,213.66357421875,140.14892578125C212.27783203125,140.14892578125,212.49658203125,140.14892578125,211.913330078125,140.3671875C210.236083984375,140.73095703125,208.412841796875,141.75,206.29833984375,143.5703125C205.05859375,144.51708984375,204.402099609375,144.880859375,204.03759765625,145.09912109375L204.03759765625,145.09912109375C204.03759765625,144.58984375,203.96484375,142.6240234375,205.787841796875,137.52783203125L216.06982421875,108.3330078125C218.6220703125,101.1982421875,219.716064453125,94.71875,219.351318359375,89.11279296875C219.351318359375,88.966796875,219.351318359375,88.89453125,219.351318359375,88.82177734375C222.414306640625,88.31201171875,225.622802734375,88.09326171875,228.977294921875,88.09326171875C234.81103515625,88.09326171875,239.332275390625,89.25830078125,242.468017578125,91.51513671875C245.603515625,93.84521484375,247.135009765625,97.12109375,247.135009765625,101.41650390625C247.135009765625,105.7119140625,246.551513671875,106.876953125,245.311767578125,110.0078125C244.801513671875,111.24560546875,244.291015625,112.48291015625,243.780517578125,113.79345703125C248.37451171875,107.60498046875,253.1875,102.654296875,258.292236328125,98.86865234375C263.54248046875,95.01025390625,268.79296875,92.24365234375,274.1162109375,90.56884765625C279.439697265625,88.89453125,284.471435546875,88.09326171875,289.284423828125,88.09326171875C294.09716796875,88.09326171875,301.09765625,89.5498046875,304.4521484375,92.53466796875C307.806640625,95.51953125,309.629638671875,99.5966796875,309.92138671875,104.765625C310.213134765625,109.9345703125,309.192138671875,115.90478515625,306.858642578125,122.60302734375L296.57666015625,151.79736328125C294.8994140625,156.52978515625,294.31591796875,159.80615234375,294.826171875,161.69873046875C295.3369140625,163.51904296875,296.28466796875,164.46533203125,297.67041015625,164.46533203125C299.055908203125,164.46533203125,299.20166015625,164.2470703125,300.00390625,163.8828125C300.733154296875,163.51904296875,301.75390625,162.86376953125,302.920654296875,161.91748046875C304.59814453125,160.53369140625,305.983642578125,159.7333984375,307.077392578125,159.44189453125C307.369140625,159.44189453125,307.73388671875,159.369140625,308.025390625,159.369140625C308.754638671875,159.369140625,309.48388671875,159.58740234375,310.213134765625,159.951171875C311.525634765625,160.6796875,312.2548828125,161.91748046875,312.400634765625,163.81005859375Z" style="fill: rgb(55, 61, 138); fill-opacity: 1;"/></g></g><g id="shape-62bfb287-765e-8072-8007-fa92d6a475fe"><g class="fills" id="fills-62bfb287-765e-8072-8007-fa92d6a475fe"><path d="M417.99267578125,132.0673828125C417.55517578125,129.73779296875,416.753173828125,128.208984375,415.58642578125,127.48046875C414.419677734375,126.7529296875,413.179931640625,126.46142578125,411.940185546875,126.60693359375C410.9921875,126.7529296875,409.971435546875,127.189453125,409.0234375,127.91748046875C408.00244140625,128.6455078125,406.7626953125,129.9560546875,405.158447265625,131.77587890625C402.460205078125,134.97998046875,399.251708984375,137.6005859375,395.53271484375,139.63916015625C391.813720703125,141.677734375,388.021484375,143.06103515625,384.15673828125,143.7890625C375.5517578125,145.46337890625,368.11376953125,144.080078125,361.84228515625,139.63916015625C358.8525390625,137.52783203125,356.373046875,134.61572265625,354.331298828125,130.90234375L397.355712890625,122.60302734375C403.262451171875,121.43798828125,407.491943359375,119.03515625,410.190185546875,115.24951171875C412.815185546875,111.53662109375,413.617431640625,106.80419921875,412.523681640625,101.1982421875C411.2109375,94.5732421875,408.22119140625,88.74853515625,403.408203125,83.7978515625C398.66845703125,78.84765625,392.4697265625,75.3525390625,384.958740234375,73.24169921875C377.44775390625,71.1298828125,368.915771484375,71.05712890625,359.2900390625,72.87744140625C347.330810546875,75.20703125,337.632080078125,79.4296875,330.33984375,85.54541015625C323.047607421875,91.6611328125,318.015869140625,99.0869140625,315.390625,107.896484375C312.692626953125,116.6328125,312.400634765625,126.09716796875,314.296875,136.21728515625C316.192626953125,146.0458984375,320.0576171875,154.27294921875,325.96435546875,160.89794921875C331.87109375,167.52294921875,339.163330078125,172.10986328125,347.987060546875,174.658203125C356.810791015625,177.2060546875,366.6552734375,177.4248046875,377.44775390625,175.3134765625C387.146484375,173.42041015625,395.16796875,170.216796875,401.585205078125,165.63037109375C408.00244140625,161.04345703125,412.5966796875,155.8017578125,415.4404296875,149.7587890625C418.284423828125,143.7890625,419.15966796875,137.81884765625,417.99267578125,131.84912109375ZM352.1435546875,112.62841796875C351.4873046875,109.42529296875,351.414306640625,106.7314453125,351.779052734375,104.69287109375C352.1435546875,102.654296875,352.872802734375,101.052734375,353.893798828125,99.96044921875C354.98779296875,98.86865234375,356.154296875,98.140625,357.5400390625,97.849609375C359.2900390625,97.4853515625,361.0400390625,97.9951171875,362.71728515625,99.3056640625C364.394775390625,100.61572265625,365.63427734375,103.09130859375,366.290771484375,106.7314453125C366.8740234375,109.78955078125,365.707275390625,111.609375,362.71728515625,112.19189453125L352.3623046875,114.1572265625C352.289306640625,113.64794921875,352.1435546875,113.138671875,352.07080078125,112.62841796875Z" style="fill: rgb(55, 61, 138); fill-opacity: 1;"/></g></g><g id="shape-62bfb287-765e-8072-8007-fa92d6a475ff"><g class="fills" id="fills-62bfb287-765e-8072-8007-fa92d6a475ff"><path d="M602.122802734375,111.17236328125C601.9039306640625,117.36083984375,600.5184326171875,122.67578125,597.966064453125,127.11669921875C595.413818359375,131.5576171875,592.205078125,134.90673828125,588.267333984375,137.236328125C584.32958984375,139.56640625,580.1728515625,140.73095703125,575.7247314453125,140.73095703125C571.2762451171875,140.73095703125,567.1197509765625,139.63916015625,565.005126953125,137.52783203125C562.89013671875,135.41650390625,561.79638671875,133.013671875,561.79638671875,130.4658203125C561.79638671875,127.91748046875,562.088134765625,126.5341796875,562.744384765625,124.6416015625C563.400634765625,122.8212890625,563.6923828125,121.0009765625,563.6923828125,119.18115234375C563.6923828125,117.36083984375,563.3277587890625,116.70556640625,562.5985107421875,115.90478515625C561.869384765625,115.1767578125,560.92138671875,114.73974609375,559.8275146484375,114.73974609375C558.2232666015625,114.73974609375,556.6190185546875,115.54052734375,554.8687744140625,117.06982421875C553.1915283203125,118.67138671875,551.368408203125,121.43798828125,549.3995361328125,125.369140625C547.4305419921875,129.37353515625,545.09716796875,134.97998046875,542.5447998046875,142.33251953125C540.794677734375,147.28369140625,539.554931640625,151.28759765625,538.898681640625,154.345703125C538.2423095703125,157.4033203125,537.877685546875,160.24267578125,537.877685546875,162.791015625C537.877685546875,165.3388671875,538.4610595703125,167.23193359375,539.554931640625,168.39697265625C540.648681640625,169.5615234375,541.8155517578125,170.7265625,542.909423828125,171.81884765625C544.0032958984375,172.9833984375,544.586669921875,174.8037109375,544.586669921875,177.4248046875C544.586669921875,180.04541015625,543.2010498046875,182.81201171875,540.357177734375,185.06884765625C537.512939453125,187.326171875,533.28369140625,189.0732421875,527.595703125,190.31103515625C521.90771484375,191.548828125,514.6883544921875,192.2041015625,505.937744140625,192.2041015625C497.18701171875,192.2041015625,496.239013671875,191.11181640625,493.6136474609375,188.927734375C490.9884033203125,186.74365234375,489.6759033203125,183.61279296875,489.60302734375,179.6083984375C489.60302734375,175.6044921875,490.5509033203125,170.8720703125,492.6656494140625,165.41162109375L506.5208740234375,128.79150390625C511.1881103515625,128.57275390625,515.709228515625,127.26220703125,519.79296875,124.787109375C524.2412109375,122.166015625,527.9603271484375,118.3076171875,530.80419921875,113.3564453125C533.6483154296875,108.478515625,535.1795654296875,102.5087890625,535.3984375,95.73779296875C535.471435546875,92.8984375,535.325439453125,90.205078125,534.81494140625,87.7294921875C539.0445556640625,88.02099609375,542.325927734375,89.11279296875,544.586669921875,91.1513671875C547.2117919921875,93.48095703125,548.5244140625,96.75732421875,548.5244140625,101.052734375C548.5244140625,105.34814453125,548.0140380859375,106.51318359375,547.06591796875,109.6435546875C546.920166015625,110.22607421875,546.701416015625,110.80810546875,546.482666015625,111.4638671875C549.6912841796875,106.00341796875,553.1915283203125,101.5625,556.837646484375,98.21337890625C560.994384765625,94.42724609375,565.15087890625,91.73388671875,569.38037109375,90.13232421875C573.6097412109375,88.5302734375,577.5477294921875,87.7294921875,581.19384765625,87.7294921875C588.048583984375,87.7294921875,593.2989501953125,89.8408203125,597.01806640625,94.13623046875C600.7371826171875,98.431640625,602.414306640625,104.0380859375,602.122802734375,111.02685546875Z" style="fill: rgb(55, 61, 138); fill-opacity: 1;"/></g></g><g id="shape-62bfb287-765e-8072-8007-fa92d6a47600"><g class="fills" id="fills-62bfb287-765e-8072-8007-fa92d6a47600"><path d="M531.7523193359375,95.81103515625C531.533447265625,101.9990234375,530.1480712890625,107.31396484375,527.595703125,111.7548828125C525.04345703125,116.1962890625,521.834716796875,119.544921875,517.89697265625,121.875C514.6883544921875,123.767578125,511.333984375,124.9326171875,507.7607421875,125.296875C507.1043701171875,125.296875,506.4481201171875,125.369140625,505.7916259765625,125.4423828125C505.6458740234375,125.4423828125,505.5001220703125,125.4423828125,505.28125,125.4423828125C504.7708740234375,125.4423828125,504.333251953125,125.4423828125,503.8958740234375,125.4423828125C501.4892578125,125.369140625,499.5203857421875,125.00537109375,497.8431396484375,124.35009765625C496.895263671875,123.986328125,496.0931396484375,123.54931640625,495.3638916015625,122.966796875C495.0721435546875,122.74853515625,494.7803955078125,122.5302734375,494.5616455078125,122.3115234375C494.1241455078125,121.80224609375,493.6866455078125,121.365234375,493.322021484375,120.85546875C492.0093994140625,119.1083984375,491.426025390625,117.21533203125,491.426025390625,115.24951171875C491.426025390625,113.28369140625,491.426025390625,113.50244140625,491.57177734375,112.62841796875C491.7177734375,111.53662109375,492.0093994140625,110.4443359375,492.301025390625,109.42529296875C492.738525390625,108.11474609375,493.0302734375,106.876953125,493.17626953125,105.56640625L493.17626953125,105.56640625C493.17626953125,104.98388671875,493.2491455078125,104.474609375,493.2491455078125,103.96484375C493.2491455078125,103.45556640625,493.2491455078125,102.94580078125,493.103271484375,102.5087890625C492.9573974609375,101.78076171875,492.5927734375,101.1982421875,492.1552734375,100.76123046875C491.426025390625,99.96044921875,490.4779052734375,99.5966796875,489.3841552734375,99.5966796875C487.77978515625,99.5966796875,486.175537109375,100.3974609375,484.4254150390625,101.92626953125C482.748046875,103.52783203125,480.925048828125,106.29443359375,478.9561767578125,110.22607421875C476.9871826171875,114.1572265625,474.6536865234375,119.83642578125,472.101318359375,127.189453125C470.3511962890625,132.14013671875,469.1844482421875,136.14453125,468.5281982421875,139.2021484375C467.871826171875,142.26025390625,467.5072021484375,145.09912109375,467.5072021484375,147.6474609375C467.5072021484375,150.19580078125,468.0906982421875,152.0888671875,469.1844482421875,153.25341796875C470.2783203125,154.41845703125,471.445068359375,155.58349609375,472.5389404296875,156.67529296875C473.6328125,157.84033203125,474.21630859375,159.66015625,474.21630859375,162.28125C474.21630859375,164.90234375,472.8306884765625,167.6689453125,469.9866943359375,169.92578125C467.142578125,172.1826171875,462.9132080078125,173.93017578125,457.2252197265625,175.16748046875C451.537109375,176.4052734375,444.31787109375,177.060546875,435.5673828125,177.060546875C426.816650390625,177.060546875,425.868408203125,175.96826171875,423.2431640625,173.7841796875C420.6181640625,171.60009765625,419.305419921875,168.4697265625,419.232421875,164.46533203125C419.15966796875,160.4609375,420.1806640625,155.72900390625,422.295166015625,150.2685546875L436.2236328125,113.3564453125C438.046630859375,108.62451171875,438.6298828125,105.34814453125,438.11962890625,103.45556640625C437.5361328125,101.63525390625,436.588134765625,100.68896484375,435.20263671875,100.68896484375C433.81689453125,100.68896484375,433.671142578125,100.83447265625,432.868896484375,101.1982421875C432.06689453125,101.5625,431.118896484375,102.2177734375,429.9521484375,103.1640625C428.27490234375,104.474609375,426.889404296875,105.275390625,425.795654296875,105.49365234375C425.430908203125,105.56640625,425.066162109375,105.6396484375,424.70166015625,105.6396484375C423.972412109375,105.6396484375,423.31640625,105.49365234375,422.5869140625,105.1298828125C421.2744140625,104.40185546875,420.545166015625,103.1640625,420.47216796875,101.27099609375C420.3994140625,99.3779296875,421.0556640625,96.9755859375,422.5869140625,94.0634765625C424.847412109375,89.76806640625,427.910400390625,85.98193359375,431.775146484375,82.7060546875C435.712890625,79.4296875,440.234130859375,76.95458984375,445.411865234375,75.13427734375C450.589111328125,73.31396484375,456.2042236328125,72.4404296875,462.2568359375,72.4404296875C468.3094482421875,72.4404296875,471.5179443359375,73.60546875,474.1431884765625,75.8623046875C476.7685546875,78.1923828125,478.0809326171875,81.46826171875,478.0809326171875,85.763671875C478.0809326171875,90.05908203125,477.570556640625,91.22412109375,476.6224365234375,94.35498046875C476.476806640625,94.93701171875,476.2579345703125,95.51953125,476.039306640625,96.10205078125C479.247802734375,90.6416015625,482.748046875,86.20068359375,486.3944091796875,82.8515625C490.5509033203125,79.06591796875,494.7073974609375,76.3720703125,498.93701171875,74.77001953125C503.0936279296875,73.16845703125,507.031494140625,72.36767578125,510.75048828125,72.36767578125C517.6053466796875,72.36767578125,522.8555908203125,74.47900390625,526.5745849609375,78.7744140625C527.9603271484375,80.37646484375,529.05419921875,82.19677734375,529.8560791015625,84.162109375C530.074951171875,84.74462890625,530.2938232421875,85.32666015625,530.5125732421875,85.98193359375C530.7313232421875,86.564453125,530.877197265625,87.14697265625,531.0230712890625,87.80224609375C531.6064453125,90.205078125,531.8253173828125,92.82568359375,531.6793212890625,95.73779296875Z" style="fill: rgb(55, 61, 138); fill-opacity: 1;"/></g></g><g id="shape-62bfb287-765e-8072-8007-fa92d6a47601"><g class="fills" id="fills-62bfb287-765e-8072-8007-fa92d6a47601"><path d="M215.85107421875,155.36474609375C212.49658203125,161.84423828125,207.319091796875,167.08642578125,200.391357421875,171.01806640625C195.870361328125,173.638671875,190.765625,175.38623046875,185.150634765625,176.259765625C184.5673828125,176.33251953125,183.9111328125,176.478515625,183.32763671875,176.55078125C182.744140625,176.62353515625,182.087890625,176.6962890625,181.431640625,176.76953125C179.608642578125,176.9150390625,177.78564453125,176.98779296875,175.8896484375,176.98779296875C168.816162109375,176.98779296875,163.638427734375,175.6044921875,160.35693359375,172.9833984375C157.075439453125,170.28955078125,155.325439453125,166.50390625,155.106689453125,161.69873046875C154.960693359375,156.8935546875,155.981689453125,151.28759765625,158.169189453125,144.9541015625L168.451416015625,115.90478515625C170.2744140625,111.318359375,170.9306640625,107.82373046875,170.566162109375,105.49365234375C170.128662109375,103.1640625,168.524169921875,101.9990234375,165.75341796875,101.9990234375C162.982177734375,101.9990234375,162.0341796875,102.58154296875,160.0654296875,103.8193359375C158.096435546875,105.05712890625,156.12744140625,106.7314453125,154.158447265625,108.91552734375C152.189697265625,111.099609375,150.366455078125,113.720703125,148.54345703125,116.77880859375C146.720458984375,119.83642578125,145.1162109375,123.2578125,143.65771484375,127.0439453125C142.418212890625,130.39306640625,141.32421875,133.3779296875,140.376220703125,135.9990234375C139.42822265625,138.6201171875,138.698974609375,140.94970703125,138.26123046875,142.98828125C137.7509765625,144.9541015625,137.5322265625,146.701171875,137.5322265625,148.302734375C137.5322265625,150.6328125,137.9697265625,152.74365234375,138.77197265625,154.70947265625C139.573974609375,156.67529296875,140.011474609375,158.859375,140.011474609375,161.40771484375C140.011474609375,166.1396484375,137.021728515625,169.92578125,130.968994140625,172.837890625C124.989501953125,175.67724609375,116.530517578125,177.13330078125,105.73779296875,177.13330078125C94.9453125,177.13330078125,93.6328125,174.8037109375,91.882568359375,170.14404296875C91.882568359375,170.0712890625,91.882568359375,169.99853515625,91.809814453125,169.92578125C90.351318359375,165.703125,90.7158203125,160.09716796875,92.976318359375,153.1806640625C93.26806640625,152.306640625,93.559814453125,151.3603515625,93.92431640625,150.4140625L107.852783203125,113.50244140625C109.67578125,108.77001953125,110.33203125,105.49365234375,109.74853515625,103.6005859375C109.165283203125,101.78076171875,108.21728515625,100.83447265625,106.831787109375,100.83447265625C105.4462890625,100.83447265625,105.30029296875,100.97998046875,104.498291015625,101.34375C103.76904296875,101.7080078125,102.748046875,102.36328125,101.581298828125,103.3095703125C99.904052734375,104.6201171875,98.5185546875,105.4208984375,97.4248046875,105.6396484375C97.06005859375,105.7119140625,96.695556640625,105.78515625,96.330810546875,105.78515625C95.6015625,105.78515625,94.9453125,105.6396484375,94.216064453125,105.275390625C92.903564453125,104.54736328125,92.17431640625,103.3095703125,92.101318359375,101.41650390625C91.95556640625,99.52392578125,92.6845703125,97.12109375,94.216064453125,94.208984375C97.6435546875,87.7294921875,102.893798828125,82.48779296875,109.89453125,78.4833984375C116.968017578125,74.5517578125,125.28125,72.513671875,134.833984375,72.513671875C144.386962890625,72.513671875,145.18896484375,73.67822265625,148.251953125,75.93505859375C151.387451171875,78.26513671875,152.9189453125,81.541015625,152.9189453125,85.8369140625C152.9189453125,90.13232421875,152.33544921875,91.296875,151.095947265625,94.42724609375C150.58544921875,95.6650390625,150.074951171875,96.90283203125,149.564453125,98.21337890625C154.158447265625,92.02490234375,158.971435546875,87.07421875,164.003173828125,83.28857421875C169.25341796875,79.4296875,174.504150390625,76.6630859375,179.827392578125,74.98876953125C185.150634765625,73.31396484375,190.182373046875,72.4404296875,194.995361328125,72.4404296875C199.80810546875,72.4404296875,206.80859375,73.896484375,210.163330078125,76.8818359375C212.715576171875,79.138671875,214.392822265625,82.05078125,215.19482421875,85.69091796875C215.340576171875,86.2734375,215.41357421875,86.85595703125,215.486572265625,87.51123046875C215.559326171875,88.02099609375,215.63232421875,88.60302734375,215.63232421875,89.185546875C215.63232421875,89.185546875,215.63232421875,89.25830078125,215.63232421875,89.3310546875C215.924072265625,94.50048828125,214.903076171875,100.3974609375,212.56982421875,107.02294921875L202.28759765625,136.21728515625C200.610107421875,140.94970703125,200.02685546875,144.2255859375,200.537353515625,146.11865234375C201.0478515625,147.9384765625,201.995849609375,148.88525390625,203.38134765625,148.88525390625C204.766845703125,148.88525390625,204.912841796875,148.66650390625,205.71484375,148.302734375C206.51708984375,147.9384765625,207.465087890625,147.28369140625,208.6318359375,146.3369140625C210.30908203125,144.9541015625,211.6943359375,144.15283203125,212.788330078125,143.86181640625C213.15283203125,143.86181640625,213.44482421875,143.7890625,213.809326171875,143.7890625C214.53857421875,143.7890625,215.267822265625,144.00732421875,215.9970703125,144.37158203125C217.3095703125,145.09912109375,218.038818359375,146.3369140625,218.111572265625,148.22998046875C218.257568359375,150.123046875,217.5283203125,152.525390625,215.9970703125,155.4375Z" style="fill: rgb(55, 61, 138); fill-opacity: 1;"/></g></g><g id="shape-62bfb287-765e-8072-8007-fa92d6a47602"><g class="fills" id="fills-62bfb287-765e-8072-8007-fa92d6a47602"><path d="M27.127197265625,14.41552734375C19.761962890625,16.01708984375,15.82421875,27.3017578125,17.13671875,31.37890625C17.574462890625,32.25244140625,18.9599609375,32.25244140625,19.105712890625,31.37890625C20.710205078125,22.64208984375,24.428955078125,19.87548828125,28.2939453125,17.32763671875C29.75244140625,16.38134765625,28.804443359375,14.1240234375,27.127197265625,14.48828125Z" style="fill: rgb(55, 61, 138); fill-opacity: 1;"/></g></g><g id="shape-62bfb287-765e-8072-8007-fa92d6a47603"><g class="fills" id="fills-62bfb287-765e-8072-8007-fa92d6a47603"><path d="M22.022705078125,6.333984375C9.990478515625,6.04296875,3.937744140625,23.953125,5.542236328125,30.287109375C5.90673828125,31.5244140625,7.948486328125,31.30615234375,8.167236328125,30.068359375C10.646728515625,16.38134765625,16.91796875,13.177734375,22.897705078125,9.173828125C24.210205078125,8.30029296875,23.553955078125,6.333984375,22.022705078125,6.333984375Z" style="fill: rgb(55, 61, 138); fill-opacity: 1;"/></g></g><g id="shape-62bfb287-765e-8072-8007-fa92d6a47604"><g class="fills" id="fills-62bfb287-765e-8072-8007-fa92d6a47604"><path d="M291.18017578125,204.3623046875C298.32666015625,208.220703125,308.31689453125,200.06689453125,309.775634765625,195.6982421875C310.213134765625,194.8974609375,308.681884765625,194.16943359375,308.098388671875,194.82470703125C301.608154296875,201.81396484375,296.722412109375,201.7412109375,291.836669921875,201.81396484375C290.450927734375,201.81396484375,289.9404296875,203.70703125,291.18017578125,204.3623046875Z" style="fill: rgb(55, 61, 138); fill-opacity: 1;"/></g></g><g id="shape-62bfb287-765e-8072-8007-fa92d6a47605"><g class="fills" id="fills-62bfb287-765e-8072-8007-fa92d6a47605"><path d="M315.901123046875,202.83349609375C306.12939453125,213.39013671875,298.98291015625,212.2978515625,291.61767578125,212.5166015625C290.30517578125,212.5166015625,289.86767578125,214.19091796875,290.888427734375,214.99169921875C300.87890625,222.5634765625,316.192626953125,210.40478515625,318.3076171875,204.07080078125C318.9638671875,202.97900390625,316.776123046875,201.9599609375,315.97412109375,202.83349609375Z" style="fill: rgb(55, 61, 138); fill-opacity: 1;"/></g></g><g id="shape-62bfb287-765e-8072-8007-fa92d6a47606"><g class="fills" id="fills-62bfb287-765e-8072-8007-fa92d6a47606"><path d="M603.0706787109375,76.00830078125C602.1956787109375,75.716796875,601.8310546875,77.46435546875,602.633056640625,77.90087890625C610.363037109375,82.12353515625,611.894287109375,86.49169921875,613.06103515625,90.8603515625C613.4986572265625,92.607421875,616.051025390625,92.31591796875,616.19677734375,90.56884765625C616.7801513671875,83.21533203125,607.373046875,76.3720703125,603.0706787109375,76.00830078125Z" style="fill: rgb(55, 61, 138); fill-opacity: 1;"/></g></g><g id="shape-62bfb287-765e-8072-8007-fa92d6a47607"><g class="fills" id="fills-62bfb287-765e-8072-8007-fa92d6a47607"><path d="M607.5919189453125,65.8154296875C606.3521728515625,65.45166015625,605.841796875,67.78125,607.0084228515625,68.36328125C619.040771484375,74.916015625,619.98876953125,81.83251953125,621.95751953125,88.60302734375C622.3951416015625,90.13232421875,624.6556396484375,90.13232421875,625.0203857421875,88.60302734375C627.937255859375,77.39111328125,613.790283203125,66.251953125,607.5919189453125,65.8154296875Z" style="fill: rgb(55, 61, 138); fill-opacity: 1;"/></g></g></g></g></g></g></g></g></g></svg>