<svg width="100" height="100" viewBox="0 0 100 100" fill="none" xmlns="http://www.w3.org/2000/svg">
<path d="M19,14 Q50,12 81,14 Q88,14 88,21 Q90,23.5 88,26 Q88,33 81,33 Q50,35 19,33 Q12,33 12,26 Q10,23.5 12,21 Q12,14 19,14 Z" fill="none" stroke="black" stroke-width="5" stroke-linejoin="round" stroke-linecap="round"/>
<path d="M19,40 Q50,38 81,40 Q88,40 88,47 Q90,49.5 88,52 Q88,59 81,59 Q50,61 19,59 Q12,59 12,52 Q10,49.5 12,47 Q12,40 19,40 Z" fill="none" stroke="black" stroke-width="5" stroke-linejoin="round" stroke-linecap="round"/>
<path d="M19,66 Q50,64 81,66 Q88,66 88,73 Q90,75.5 88,78 Q88,85 81,85 Q50,87 19,85 Q12,85 12,78 Q10,75.5 12,73 Q12,66 19,66 Z" fill="none" stroke="black" stroke-width="5" stroke-linejoin="round" stroke-linecap="round"/>
</svg>
