<svg width="158" height="141" viewBox="0 0 158 141" fill="none" xmlns="http://www.w3.org/2000/svg">
<g clip-path="url(#clip0)">
<path d="M25.3444 106.878C27.7828 108.544 28.102 109.755 26.8285 112.511C24.164 118.28 21.0905 125.117 18.4964 132.108C17.8052 133.97 17.7557 137.607 19.2508 139.067C20.4742 140.262 22.5497 140.426 24.5568 140.584C25.1503 140.631 25.7106 140.675 26.2382 140.744C26.3236 140.756 26.4095 140.761 26.4956 140.761C27.2256 140.692 27.9286 140.45 28.5463 140.056L28.8069 139.92C31.0067 138.785 33.2086 137.654 35.4126 136.526C41.7037 133.301 48.2085 129.963 54.5425 126.559L54.6018 126.528C62.2238 122.434 69.4168 118.566 78.2498 120.266C78.6185 120.325 78.9925 120.34 79.3651 120.309C79.483 120.303 79.6022 120.298 79.7188 120.297C100.703 120.106 116.873 115.762 130.606 106.626C151.64 92.6322 161.084 72.6056 156.517 51.6818C152.289 32.3089 143.953 20.2547 129.488 12.5985C114.782 4.81623 98.2103 0.344555 82.8262 0.00732422C82.8204 0.00829458 82.8145 0.00829458 82.8093 0.00732422C63.8205 0.0820479 47.9564 3.20238 32.8857 9.82936C14.6163 17.8612 4.59895 29.4004 2.26219 45.106C1.2549 51.4949 1.13475 57.9916 1.90517 64.4132C4.43476 83.9408 12.1024 97.831 25.3444 106.878ZM31.7762 122.668C33.0466 118.148 34.2452 113.879 35.7403 109.789C38.0855 103.379 34.6244 99.7777 31.3495 97.356C26.3685 93.6744 21.3302 89.436 18.2123 83.4113C10.1604 67.8526 9.06465 53.2775 14.86 38.8533C18.0032 31.0307 24.3842 25.2225 34.941 20.5741C49.512 14.1583 64.0147 10.9506 78.3527 10.9506C92.628 11.014 106.724 14.1301 119.691 20.088C134.661 26.8151 142.963 37.9101 145.818 55.0055C148.164 69.0345 144.266 80.7193 133.559 91.7764C124.025 101.622 111.17 107.416 93.1042 110.01C83.9989 111.317 73.2291 112.4 62.3899 110.52C61.0369 110.291 59.5235 111.136 58.2995 111.82C50.9622 115.933 43.6939 120.058 35.9996 124.425L30.3717 127.618C30.8629 125.919 31.3254 124.273 31.7762 122.668V122.668Z" fill="black"/>
</g>
<defs>
<clipPath id="clip0">
<rect width="157" height="141" fill="white" transform="translate(0.777344)"/>
</clipPath>
</defs>
</svg>
