<svg width="157" height="157" viewBox="0 0 157 157" fill="none" xmlns="http://www.w3.org/2000/svg">
<path d="M59 17C61 14.5 64.5 13.5 67 16C70.2 19.2 73.6 21.4 78.6 21.5C83.6 21.6 87.4 19.5 90.4 16.4C92.7 14 96.3 14.6 98.3 16.8C99.8 18.4 101.6 19.5 103.8 20.4C112.4 23.9 120.9 27.7 129.4 31.5C133.9 33.5 135.5 36.8 134 41.5C131.1 50.6 128 59.6 125 68.7C123.6 72.9 120.7 74.7 116.4 73.6C113.5 72.9 110.7 71.8 107.5 70.7C107.5 72.4 107.5 73.9 107.5 75.4C107.6 94.4 107.8 113.4 107.8 132.4C107.8 138.5 105.4 140.9 99.3 141C85.5 141.2 71.7 141.4 57.9 141.3C51.6 141.2 49.3 138.7 49.3 132.4C49.4 113.7 49.6 95 49.7 76.3C49.7 74.6 49.7 72.9 49.7 70.6C46.6 71.7 44 72.8 41.2 73.5C36.7 74.7 33.8 73 32.3 68.6C29.3 59.4 26.2 50.3 23.3 41.1C21.9 36.7 23.5 33.5 27.8 31.6C36.5 27.7 45.2 23.8 54 20.2C56 19.4 57.6 18.3 59 17ZM62.6 24.6C61.1 25.6 60 26.5 58.7 27.1C50.5 30.7 42.3 34.3 34.1 37.8C31.9 38.7 31.1 39.9 32 42.3C34.4 49.3 36.7 56.4 39 63.5C39.7 65.6 40.8 66.3 43 65.4C45.7 64.3 48.5 63.4 51.3 62.5C55.4 61.2 57.6 62.8 57.6 67.1C57.5 88.1 57.3 109.1 57.2 130.1C57.2 133 57.5 133.4 60.5 133.4C72.6 133.3 84.7 133.2 96.8 133C99.5 133 99.9 132.5 99.9 129.7C99.8 108.9 99.6 88.1 99.6 67.3C99.6 62.8 101.8 61.2 106.1 62.6C108.8 63.5 111.5 64.4 114.1 65.4C116.2 66.2 117.4 65.6 118.1 63.5C120.4 56.3 122.8 49.2 125.2 42.1C125.9 40 125.3 38.8 123.3 37.9C114.9 34.3 106.6 30.6 98.3 26.9C97.2 26.4 96.2 25.6 95 24.8C90.1 28.1 84.7 29.7 78.5 29.6C72.5 29.5 67.2 27.8 62.6 24.6Z" fill="black"/>
<path d="M68.5 38.9C70.7 38.6 72.4 39.9 74.7 41.3C77.2 42.8 80.3 42.7 82.7 41.1C84.6 39.9 86.4 38.7 88.5 39.1C90.6 39.5 91.6 41.5 90.6 43.4C88.3 47.6 84 49.9 78.7 49.8C73.5 49.7 69.2 47.3 67 43.2C66 41.3 66.6 39.2 68.5 38.9Z" fill="black"/>
</svg>
